# xmcd
#
# Track frame offsets:
#	150
#	25739
#	51003
#	72710
#	93136
#	113045
#	133967
#	159673
#	176138
#	211447
#	231555
#	261443
#	288007
#	311645
#
# Disc length: 4521 seconds
#
# Revision: 2
# Processed by: cddbd v1.5.1PL0 Copyright (c) Steve Scherf et al.
# Submitted via: EasyCDDAExtractor 8.1.0.1
#
DISCID=d311a70e
DTITLE=HIGH WAY 60's-70's BLUES REVISITED - COLLECTION OF BLUES
DYEAR=2003
DGENRE=Blues
TTITLE0=ALVIN "YOUNGBLOOD" HART - Heartbreaker
TTITLE1=ERIC GALES, MATT TUDOR and DEREK TRUCKS - Custard Pie
TTITLE2=HOLMES BROTHERS - Beast of Burden
TTITLE3=ANN PEEBLES - Tears in Heaven
TTITLE4=OTIS CLAY - Wonderful Tonight
TTITLE5=LUTHER ALLISON - You Can't Always Get What You Want
TTITLE6=SYL JOHNSON - Me and Bobby McGee
TTITLE7=LEON RUSSELL - Watching the River Flow
TTITLE8=ERIC GALES and DEREK TRUCKS - Layla
TTITLE9=LARRY MCCRAY - All Along the Watchtower
TTITLE10=MAVIS STAPLES - Gotta Serve Somebody
TTITLE11=JUNIOR WELLS - (I Can't Get No) Satisfaction
TTITLE12=THE BAND - One Too Many Mornings
TTITLE13=CARL WEATHERSBY - Lay Down Sally
EXTD=
EXTT0=
EXTT1=
EXTT2=
EXTT3=
EXTT4=
EXTT5=
EXTT6=
EXTT7=
EXTT8=
EXTT9=
EXTT10=
EXTT11=
EXTT12=
EXTT13=
PLAYORDER=
